<svg width="25" height="25" viewBox="0 0 25 25" fill="none" xmlns="http://www.w3.org/2000/svg">
<rect width="25" height="25" rx="12.5" fill="white"/>
<path d="M19.0868 16.4137C18.84 16.9814 18.5477 17.504 18.2092 17.9845C17.7477 18.6395 17.3698 19.0928 17.0786 19.3446C16.6272 19.7579 16.1436 19.9695 15.6256 19.9816C15.2538 19.9816 14.8054 19.8762 14.2835 19.6626C13.7598 19.4499 13.2786 19.3446 12.8386 19.3446C12.3771 19.3446 11.8821 19.4499 11.3527 19.6626C10.8225 19.8762 10.3954 19.9876 10.0688 19.9986C9.57215 20.0197 9.07711 19.802 8.58297 19.3446C8.26759 19.0708 7.8731 18.6013 7.40053 17.9363C6.89349 17.2262 6.47664 16.4027 6.15007 15.4638C5.80033 14.4497 5.625 13.4677 5.625 12.517C5.625 11.428 5.86139 10.4887 6.33487 9.70163C6.70698 9.06941 7.20203 8.57069 7.82161 8.20457C8.4412 7.83846 9.11066 7.65189 9.83162 7.63995C10.2261 7.63995 10.7434 7.76142 11.3863 8.00015C12.0273 8.23968 12.4389 8.36115 12.6194 8.36115C12.7543 8.36115 13.2116 8.21912 13.9867 7.93596C14.7198 7.67336 15.3385 7.56462 15.8453 7.60745C17.2187 7.71779 18.2505 8.25673 18.9367 9.22769C17.7084 9.96855 17.1008 11.0062 17.1129 12.3374C17.124 13.3742 17.5018 14.2371 18.2444 14.9221C18.581 15.2401 18.9568 15.4859 19.375 15.6604C19.2843 15.9222 19.1886 16.173 19.0868 16.4137ZM15.937 4.07509C15.937 4.88778 15.6387 5.64658 15.0442 6.34892C14.3268 7.18386 13.4591 7.66633 12.518 7.5902C12.506 7.4927 12.4991 7.39009 12.4991 7.28226C12.4991 6.50209 12.8403 5.66714 13.4462 4.98446C13.7486 4.63881 14.1334 4.3514 14.5999 4.12214C15.0654 3.89629 15.5057 3.77139 15.9199 3.75C15.932 3.85864 15.937 3.96729 15.937 4.07508V4.07509Z" fill="black"/>
</svg>
