<svg width="26" height="28" viewBox="0 0 26 28" fill="none" xmlns="http://www.w3.org/2000/svg">
<g filter="url(#filter0_dd_21_5237)">
<path d="M20.4515 8.33325C20.561 8.33328 20.6693 8.31174 20.7705 8.26987C20.8716 8.22801 20.9635 8.16662 21.0408 8.08924C21.1182 8.01185 21.1796 7.91997 21.2215 7.81885C21.2634 7.71774 21.2849 7.60936 21.2849 7.49992V4.99992C21.2849 4.82506 21.2299 4.65463 21.1277 4.51279C21.0254 4.37095 20.8811 4.26491 20.7152 4.20972L13.2152 1.70972C13.044 1.65275 12.859 1.65275 12.6879 1.70972L5.18785 4.20972C5.02194 4.26491 4.87762 4.37095 4.77537 4.51279C4.67311 4.65463 4.61812 4.82506 4.61819 4.99992V7.49992C4.61817 7.60936 4.6397 7.71774 4.68157 7.81885C4.72344 7.91997 4.78482 8.01185 4.86221 8.08924C4.9396 8.16662 5.03147 8.22801 5.13259 8.26987C5.23371 8.31174 5.34209 8.33328 5.45153 8.33325H6.28486V14.3201C5.79881 14.4914 5.37767 14.8088 5.07925 15.2289C4.78084 15.6491 4.61978 16.1513 4.61819 16.6666V18.3333C4.61817 18.4427 4.6397 18.5511 4.68157 18.6522C4.72344 18.7533 4.78482 18.8452 4.86221 18.9226C4.9396 19 5.03147 19.0613 5.13259 19.1032C5.23371 19.1451 5.34209 19.1666 5.45153 19.1666H20.4515C20.561 19.1666 20.6693 19.1451 20.7705 19.1032C20.8716 19.0613 20.9635 19 21.0408 18.9226C21.1182 18.8452 21.1796 18.7533 21.2215 18.6522C21.2634 18.5511 21.2849 18.4427 21.2849 18.3333V16.6666C21.2833 16.1513 21.1222 15.6491 20.8238 15.2289C20.5254 14.8088 20.1042 14.4914 19.6182 14.3201V8.33325H20.4515ZM19.6182 17.4999H6.28486V16.6666C6.28508 16.4456 6.37295 16.2338 6.52918 16.0776C6.68542 15.9213 6.89725 15.8335 7.11819 15.8333H18.7849C19.0058 15.8335 19.2176 15.9213 19.3739 16.0776C19.5301 16.2338 19.618 16.4456 19.6182 16.6666V17.4999ZM7.95153 14.1666V8.33325H9.61819V14.1666H7.95153ZM11.2849 14.1666V8.33325H14.6182V14.1666H11.2849ZM16.2849 14.1666V8.33325H17.9515V14.1666H16.2849ZM6.28486 6.66658V5.6005L12.9515 3.378L19.6182 5.6005V6.66658H6.28486Z" fill="#F80595"/>
</g>
<defs>
<filter id="filter0_dd_21_5237" x="-1.04848" y="0" width="28" height="28" filterUnits="userSpaceOnUse" color-interpolation-filters="sRGB">
<feFlood flood-opacity="0" result="BackgroundImageFix"/>
<feColorMatrix in="SourceAlpha" type="matrix" values="0 0 0 0 0 0 0 0 0 0 0 0 0 0 0 0 0 0 127 0" result="hardAlpha"/>
<feOffset dy="4"/>
<feGaussianBlur stdDeviation="2"/>
<feComposite in2="hardAlpha" operator="out"/>
<feColorMatrix type="matrix" values="0 0 0 0 0 0 0 0 0 0 0 0 0 0 0 0 0 0 0.25 0"/>
<feBlend mode="normal" in2="BackgroundImageFix" result="effect1_dropShadow_21_5237"/>
<feColorMatrix in="SourceAlpha" type="matrix" values="0 0 0 0 0 0 0 0 0 0 0 0 0 0 0 0 0 0 127 0" result="hardAlpha"/>
<feOffset dy="4"/>
<feGaussianBlur stdDeviation="2"/>
<feComposite in2="hardAlpha" operator="out"/>
<feColorMatrix type="matrix" values="0 0 0 0 0 0 0 0 0 0 0 0 0 0 0 0 0 0 0.25 0"/>
<feBlend mode="normal" in2="effect1_dropShadow_21_5237" result="effect2_dropShadow_21_5237"/>
<feBlend mode="normal" in="SourceGraphic" in2="effect2_dropShadow_21_5237" result="shape"/>
</filter>
</defs>
</svg>
