<svg width="20" height="20" viewBox="0 0 20 20" fill="none" xmlns="http://www.w3.org/2000/svg">
<path fill-rule="evenodd" clip-rule="evenodd" d="M15.8333 8.33325C15.8333 4.9506 13.968 2.60283 11.5545 1.89801C11.4671 1.67189 11.329 1.46167 11.1412 1.28528C10.4998 0.682577 9.50022 0.682577 8.85875 1.28528C8.67143 1.46128 8.5335 1.67096 8.44608 1.89652C6.02945 2.59828 4.16666 4.94091 4.16666 8.33325C4.16666 10.5282 3.72414 11.7581 2.90496 12.6494C2.76799 12.7984 2.39691 13.1397 2.14555 13.371L2.14553 13.371L2.14542 13.3711L2.14534 13.3712C2.02651 13.4805 1.93447 13.5652 1.90663 13.5932L1.66666 13.8366V16.6783H6.73997C6.91152 17.5634 7.39173 18.1555 8.26016 18.6854C9.32844 19.3373 10.6715 19.3373 11.7398 18.6854C12.5062 18.2177 13.0201 17.499 13.2286 16.6783H18.3333V13.8366L18.0934 13.5932C18.0681 13.5676 17.9797 13.4861 17.8642 13.3795L17.8642 13.3795C17.6136 13.1483 17.2352 12.7993 17.0961 12.6474C16.2764 11.7519 15.8333 10.5205 15.8333 8.33325ZM11.4473 16.6783H8.48217C8.59991 16.8973 8.80058 17.0627 9.12834 17.2627C9.66355 17.5893 10.3364 17.5893 10.8716 17.2627C11.1195 17.1115 11.3131 16.9114 11.4473 16.6783ZM15.8668 13.7728C16.0422 13.9643 16.418 14.3145 16.6667 14.5432V15.0117H3.33332V14.5436C3.58005 14.3175 3.95702 13.9676 4.13206 13.7772C5.24517 12.5661 5.83332 10.9314 5.83332 8.33325C5.83332 5.18316 7.7773 3.34357 9.99999 3.34357C12.2164 3.34357 14.1667 5.19266 14.1667 8.33325C14.1667 10.9231 14.755 12.5583 15.8668 13.7728Z" fill="white"/>
</svg>
