<svg width="21" height="20" viewBox="0 0 21 20" fill="none" xmlns="http://www.w3.org/2000/svg">
<path d="M18.4515 8.33325C18.561 8.33328 18.6693 8.31174 18.7705 8.26987C18.8716 8.22801 18.9635 8.16662 19.0408 8.08924C19.1182 8.01185 19.1796 7.91997 19.2215 7.81885C19.2634 7.71774 19.2849 7.60936 19.2849 7.49992V4.99992C19.2849 4.82506 19.2299 4.65463 19.1277 4.51279C19.0254 4.37095 18.8811 4.26491 18.7152 4.20972L11.2152 1.70972C11.044 1.65275 10.859 1.65275 10.6879 1.70972L3.18785 4.20972C3.02194 4.26491 2.87762 4.37095 2.77537 4.51279C2.67311 4.65463 2.61812 4.82506 2.61819 4.99992V7.49992C2.61817 7.60936 2.6397 7.71774 2.68157 7.81885C2.72344 7.91997 2.78482 8.01185 2.86221 8.08924C2.9396 8.16662 3.03147 8.22801 3.13259 8.26987C3.23371 8.31174 3.34209 8.33328 3.45153 8.33325H4.28486V14.3201C3.79881 14.4914 3.37767 14.8088 3.07925 15.2289C2.78084 15.6491 2.61978 16.1513 2.61819 16.6666V18.3333C2.61817 18.4427 2.6397 18.5511 2.68157 18.6522C2.72344 18.7533 2.78482 18.8452 2.86221 18.9226C2.9396 19 3.03147 19.0613 3.13259 19.1032C3.23371 19.1451 3.34209 19.1666 3.45153 19.1666H18.4515C18.561 19.1666 18.6693 19.1451 18.7705 19.1032C18.8716 19.0613 18.9635 19 19.0408 18.9226C19.1182 18.8452 19.1796 18.7533 19.2215 18.6522C19.2634 18.5511 19.2849 18.4427 19.2849 18.3333V16.6666C19.2833 16.1513 19.1222 15.6491 18.8238 15.2289C18.5254 14.8088 18.1042 14.4914 17.6182 14.3201V8.33325H18.4515ZM17.6182 17.4999H4.28486V16.6666C4.28508 16.4456 4.37295 16.2338 4.52918 16.0776C4.68542 15.9213 4.89725 15.8335 5.11819 15.8333H16.7849C17.0058 15.8335 17.2176 15.9213 17.3739 16.0776C17.5301 16.2338 17.618 16.4456 17.6182 16.6666V17.4999ZM5.95153 14.1666V8.33325H7.61819V14.1666H5.95153ZM9.28486 14.1666V8.33325H12.6182V14.1666H9.28486ZM14.2849 14.1666V8.33325H15.9515V14.1666H14.2849ZM4.28486 6.66658V5.6005L10.9515 3.378L17.6182 5.6005V6.66658H4.28486Z" fill="#F80595"/>
</svg>
