<svg width="21" height="20" viewBox="0 0 21 20" fill="none" xmlns="http://www.w3.org/2000/svg">
<path d="M14.0432 10.5917C14.8602 9.94891 15.4565 9.06746 15.7492 8.06997C16.0419 7.07249 16.0165 6.00858 15.6764 5.02625C15.3362 4.04391 14.6984 3.19202 13.8516 2.58907C13.0048 1.98612 11.9911 1.66211 10.9515 1.66211C9.91199 1.66211 8.8983 1.98612 8.05148 2.58907C7.20466 3.19202 6.56682 4.04391 6.22671 5.02625C5.8866 6.00858 5.86113 7.07249 6.15384 8.06997C6.44654 9.06746 7.04288 9.94891 7.85987 10.5917C6.45993 11.1526 5.23844 12.0828 4.32561 13.2833C3.41278 14.4838 2.84284 15.9094 2.67654 17.4084C2.6645 17.5178 2.67413 17.6285 2.70489 17.7342C2.73565 17.84 2.78692 17.9386 2.85579 18.0245C2.99488 18.1979 3.19719 18.309 3.4182 18.3334C3.63922 18.3577 3.86084 18.2932 4.03431 18.1541C4.20778 18.015 4.31889 17.8127 4.3432 17.5917C4.52619 15.9627 5.30294 14.4582 6.52505 13.3657C7.74716 12.2732 9.32895 11.6692 10.9682 11.6692C12.6075 11.6692 14.1892 12.2732 15.4114 13.3657C16.6335 14.4582 17.4102 15.9627 17.5932 17.5917C17.6159 17.7965 17.7136 17.9856 17.8675 18.1225C18.0214 18.2595 18.2205 18.3346 18.4265 18.3334H18.5182C18.7366 18.3082 18.9363 18.1978 19.0737 18.0261C19.211 17.8544 19.275 17.6353 19.2515 17.4167C19.0844 15.9135 18.5114 14.4842 17.5939 13.2819C16.6764 12.0795 15.449 11.1496 14.0432 10.5917ZM10.9515 10C10.2923 10 9.6478 9.80453 9.09964 9.43826C8.55147 9.07198 8.12423 8.55139 7.87194 7.9423C7.61964 7.33321 7.55363 6.66299 7.68225 6.01639C7.81087 5.36979 8.12834 4.77584 8.59451 4.30967C9.06069 3.84349 9.65463 3.52602 10.3012 3.39741C10.9478 3.26879 11.6181 3.3348 12.2271 3.58709C12.8362 3.83938 13.3568 4.26662 13.7231 4.81479C14.0894 5.36295 14.2849 6.00742 14.2849 6.66669C14.2849 7.55075 13.9337 8.39859 13.3086 9.02371C12.6834 9.64883 11.8356 10 10.9515 10Z" fill="#B5AFFF"/>
</svg>
