<svg width="17" height="17" viewBox="0 0 17 17" fill="none" xmlns="http://www.w3.org/2000/svg">
<path fill-rule="evenodd" clip-rule="evenodd" d="M5.82672 4.49967H4.49504V3.83301H3.16335V5.83301H13.8168V3.83301H12.4852V4.49967H11.1535V3.83301H5.82672V4.49967ZM3.16335 13.833V7.16634H13.8168V13.833H3.16335ZM11.1535 2.49967H5.82672V1.83301H4.49504V2.49967H3.16335C2.42788 2.49967 1.83167 3.09663 1.83167 3.83301V13.833C1.83167 14.5694 2.42788 15.1663 3.16335 15.1663H13.8168C14.5523 15.1663 15.1485 14.5694 15.1485 13.833V3.83301C15.1485 3.09663 14.5523 2.49967 13.8168 2.49967H12.4852V1.83301H11.1535V2.49967ZM10.6826 8.02827L7.82425 10.8902L6.29755 9.3616L5.3559 10.3044L7.82425 12.7758L11.6243 8.97108L10.6826 8.02827Z" fill="#F80595"/>
</svg>
