<svg width="21" height="20" viewBox="0 0 21 20" fill="none" xmlns="http://www.w3.org/2000/svg">
<path d="M7.16667 9.16675C7.00185 9.16675 6.84073 9.21562 6.70369 9.30719C6.56665 9.39876 6.45984 9.52891 6.39677 9.68118C6.33369 9.83345 6.31719 10.001 6.34934 10.1627C6.3815 10.3243 6.46087 10.4728 6.57741 10.5893C6.69395 10.7059 6.84244 10.7852 7.00409 10.8174C7.16574 10.8496 7.3333 10.8331 7.48557 10.77C7.63784 10.7069 7.76799 10.6001 7.85956 10.4631C7.95112 10.326 8 10.1649 8 10.0001C8 9.77907 7.9122 9.56711 7.75592 9.41083C7.59964 9.25455 7.38768 9.16675 7.16667 9.16675ZM10.5 9.16675C10.3352 9.16675 10.1741 9.21562 10.037 9.30719C9.89998 9.39876 9.79317 9.52891 9.7301 9.68118C9.66703 9.83345 9.65052 10.001 9.68268 10.1627C9.71483 10.3243 9.7942 10.4728 9.91074 10.5893C10.0273 10.7059 10.1758 10.7852 10.3374 10.8174C10.4991 10.8496 10.6666 10.8331 10.8189 10.77C10.9712 10.7069 11.1013 10.6001 11.1929 10.4631C11.2845 10.326 11.3333 10.1649 11.3333 10.0001C11.3333 9.77907 11.2455 9.56711 11.0893 9.41083C10.933 9.25455 10.721 9.16675 10.5 9.16675ZM13.8333 9.16675C13.6685 9.16675 13.5074 9.21562 13.3704 9.30719C13.2333 9.39876 13.1265 9.52891 13.0634 9.68118C13.0004 9.83345 12.9839 10.001 13.016 10.1627C13.0482 10.3243 13.1275 10.4728 13.2441 10.5893C13.3606 10.7059 13.5091 10.7852 13.6708 10.8174C13.8324 10.8496 14 10.8331 14.1522 10.77C14.3045 10.7069 14.4347 10.6001 14.5262 10.4631C14.6178 10.326 14.6667 10.1649 14.6667 10.0001C14.6667 9.77907 14.5789 9.56711 14.4226 9.41083C14.2663 9.25455 14.0543 9.16675 13.8333 9.16675ZM10.5 1.66675C9.40565 1.66675 8.32202 1.8823 7.31097 2.30109C6.29992 2.71987 5.38126 3.3337 4.60744 4.10752C3.04464 5.67033 2.16667 7.78994 2.16667 10.0001C2.15938 11.9244 2.82566 13.7905 4.05 15.2751L2.38333 16.9417C2.2677 17.0589 2.18937 17.2077 2.15823 17.3694C2.12708 17.5311 2.14452 17.6983 2.20833 17.8501C2.27755 18 2.38975 18.126 2.5307 18.2121C2.67166 18.2981 2.835 18.3404 3 18.3334H10.5C12.7101 18.3334 14.8298 17.4554 16.3926 15.8926C17.9554 14.3298 18.8333 12.2102 18.8333 10.0001C18.8333 7.78994 17.9554 5.67033 16.3926 4.10752C14.8298 2.54472 12.7101 1.66675 10.5 1.66675ZM10.5 16.6667H5.00833L5.78333 15.8917C5.86207 15.8146 5.92471 15.7225 5.96763 15.621C6.01054 15.5194 6.03287 15.4103 6.03333 15.3001C6.0302 15.0803 5.94034 14.8706 5.78333 14.7167C4.69215 13.6268 4.01264 12.1922 3.86057 10.6574C3.70851 9.12262 4.09328 7.58259 4.94935 6.29968C5.80543 5.01678 7.07982 4.07038 8.55543 3.62173C10.031 3.17307 11.6165 3.24992 13.0418 3.83918C14.4671 4.42843 15.644 5.49364 16.372 6.85332C17.1 8.213 17.3341 9.78303 17.0343 11.2959C16.7345 12.8088 15.9194 14.171 14.7279 15.1503C13.5365 16.1296 12.0423 16.6655 10.5 16.6667Z" fill="#9B9B9B"/>
</svg>
