<svg width="21" height="20" viewBox="0 0 21 20" fill="none" xmlns="http://www.w3.org/2000/svg">
<path d="M7.16668 9.16699C7.00186 9.16699 6.84074 9.21587 6.7037 9.30743C6.56666 9.399 6.45985 9.52915 6.39678 9.68142C6.3337 9.83369 6.3172 10.0012 6.34936 10.1629C6.38151 10.3246 6.46088 10.473 6.57742 10.5896C6.69397 10.7061 6.84245 10.7855 7.0041 10.8176C7.16575 10.8498 7.33331 10.8333 7.48558 10.7702C7.63785 10.7072 7.768 10.6003 7.85957 10.4633C7.95114 10.3263 8.00001 10.1651 8.00001 10.0003C8.00001 9.77931 7.91221 9.56735 7.75593 9.41107C7.59965 9.25479 7.38769 9.16699 7.16668 9.16699ZM10.5 9.16699C10.3352 9.16699 10.1741 9.21587 10.037 9.30743C9.89999 9.399 9.79318 9.52915 9.73011 9.68142C9.66704 9.83369 9.65054 10.0012 9.68269 10.1629C9.71484 10.3246 9.79421 10.473 9.91076 10.5896C10.0273 10.7061 10.1758 10.7855 10.3374 10.8176C10.4991 10.8498 10.6666 10.8333 10.8189 10.7702C10.9712 10.7072 11.1013 10.6003 11.1929 10.4633C11.2845 10.3263 11.3333 10.1651 11.3333 10.0003C11.3333 9.77931 11.2455 9.56735 11.0893 9.41107C10.933 9.25479 10.721 9.16699 10.5 9.16699ZM13.8333 9.16699C13.6685 9.16699 13.5074 9.21587 13.3704 9.30743C13.2333 9.399 13.1265 9.52915 13.0634 9.68142C13.0004 9.83369 12.9839 10.0012 13.016 10.1629C13.0482 10.3246 13.1275 10.473 13.2441 10.5896C13.3606 10.7061 13.5091 10.7855 13.6708 10.8176C13.8324 10.8498 14 10.8333 14.1522 10.7702C14.3045 10.7072 14.4347 10.6003 14.5262 10.4633C14.6178 10.3263 14.6667 10.1651 14.6667 10.0003C14.6667 9.77931 14.5789 9.56735 14.4226 9.41107C14.2663 9.25479 14.0544 9.16699 13.8333 9.16699ZM10.5 1.66699C9.40566 1.66699 8.32203 1.88254 7.31098 2.30133C6.29993 2.72012 5.38128 3.33395 4.60745 4.10777C3.04465 5.67057 2.16668 7.79019 2.16668 10.0003C2.15939 11.9246 2.82567 13.7908 4.05001 15.2753L2.38334 16.942C2.26771 17.0592 2.18938 17.208 2.15824 17.3696C2.12709 17.5313 2.14453 17.6986 2.20834 17.8503C2.27756 18.0003 2.38976 18.1263 2.53072 18.2123C2.67167 18.2984 2.83501 18.3406 3.00001 18.3337H10.5C12.7101 18.3337 14.8298 17.4557 16.3926 15.8929C17.9554 14.3301 18.8333 12.2105 18.8333 10.0003C18.8333 7.79019 17.9554 5.67057 16.3926 4.10777C14.8298 2.54497 12.7101 1.66699 10.5 1.66699ZM10.5 16.667H5.00834L5.78334 15.892C5.86208 15.8148 5.92473 15.7228 5.96764 15.6212C6.01055 15.5197 6.03289 15.4106 6.03334 15.3003C6.03021 15.0805 5.94036 14.8709 5.78334 14.717C4.69217 13.627 4.01266 12.1924 3.86059 10.6577C3.70852 9.12287 4.0933 7.58283 4.94937 6.29993C5.80544 5.01702 7.07984 4.07062 8.55544 3.62197C10.031 3.17332 11.6166 3.25016 13.0419 3.83942C14.4672 4.42868 15.6441 5.49389 16.372 6.85357C17.1 8.21325 17.3341 9.78328 17.0343 11.2962C16.7345 12.8091 15.9194 14.1712 14.728 15.1505C13.5365 16.1299 12.0423 16.6658 10.5 16.667Z" fill="#F80595"/>
</svg>
