<svg width="25" height="24" viewBox="0 0 25 24" fill="none" xmlns="http://www.w3.org/2000/svg">
<path d="M0.5 12C0.5 5.37258 5.87258 0 12.5 0C19.1274 0 24.5 5.37258 24.5 12C24.5 18.6274 19.1274 24 12.5 24C5.87258 24 0.5 18.6274 0.5 12Z" fill="#F80595"/>
<path d="M15.7549 8.34452C15.8544 8.23594 15.9753 8.14925 16.1101 8.08994C16.2449 8.03063 16.3905 8 16.5378 8C16.685 8 16.8307 8.03063 16.9654 8.08994C17.1002 8.14925 17.2212 8.23594 17.3206 8.34452C17.5291 8.57143 17.6448 8.86836 17.6448 9.17652C17.6448 9.48467 17.5291 9.7816 17.3206 10.0085L12.0178 15.6542C11.9183 15.7628 11.7973 15.8495 11.6626 15.9088C11.5278 15.9681 11.3822 15.9987 11.2349 15.9987C11.0877 15.9987 10.942 15.9681 10.8073 15.9088C10.6725 15.8495 10.5515 15.7628 10.4521 15.6542L7.68405 12.7125C7.47556 12.4856 7.35986 12.1887 7.35986 11.8805C7.35986 11.5724 7.47556 11.2754 7.68405 11.0485C7.78352 10.9399 7.90448 10.8532 8.03926 10.7939C8.17403 10.7346 8.31966 10.704 8.46691 10.704C8.61416 10.704 8.75979 10.7346 8.89457 10.7939C9.02934 10.8532 9.1503 10.9399 9.24977 11.0485L11.2338 13.1582L15.7538 8.34452H15.7549Z" fill="white"/>
</svg>
