<svg width="13" height="13" viewBox="0 0 13 13" fill="none" xmlns="http://www.w3.org/2000/svg">
<path fill-rule="evenodd" clip-rule="evenodd" d="M5.41667 1.08325H10.8333C11.4575 1.08325 11.9167 1.54243 11.9167 2.16659V7.58325C11.9167 8.20741 11.4575 8.66659 10.8333 8.66659H8.66667V10.8333C8.66667 11.4574 8.20749 11.9166 7.58334 11.9166H2.16667C1.54251 11.9166 1.08334 11.4574 1.08334 10.8333V5.41659C1.08334 4.79243 1.54251 4.33325 2.16667 4.33325H4.33334V2.16659C4.33334 1.54243 4.79252 1.08325 5.41667 1.08325ZM4.33334 5.41659H2.16667V10.8333H7.58334V8.66659H5.41667C4.79252 8.66659 4.33334 8.20741 4.33334 7.58325V5.41659ZM5.41667 2.16659V7.58325H10.8333V2.16659H5.41667Z" fill="white"/>
</svg>
