<svg width="24" height="24" viewBox="0 0 24 24" fill="none" xmlns="http://www.w3.org/2000/svg">
<rect x="0.95166" y="0.5" width="23" height="23" rx="11.5" fill="#333333"/>
<path d="M7.95166 9H8.95166H16.9517" stroke="white" stroke-linecap="round" stroke-linejoin="round"/>
<path d="M10.4517 9V8C10.4517 7.73478 10.557 7.48043 10.7446 7.29289C10.9321 7.10536 11.1864 7 11.4517 7H13.4517C13.7169 7 13.9712 7.10536 14.1588 7.29289C14.3463 7.48043 14.4517 7.73478 14.4517 8V9M15.9517 9V16C15.9517 16.2652 15.8463 16.5196 15.6588 16.7071C15.4712 16.8946 15.2169 17 14.9517 17H9.95166C9.68644 17 9.43209 16.8946 9.24455 16.7071C9.05702 16.5196 8.95166 16.2652 8.95166 16V9H15.9517Z" stroke="white" stroke-linecap="round" stroke-linejoin="round"/>
<path d="M13.4517 11.5V14.5" stroke="white" stroke-linecap="round" stroke-linejoin="round"/>
<path d="M11.4517 11.5V14.5" stroke="white" stroke-linecap="round" stroke-linejoin="round"/>
</svg>
