<svg width="23" height="23" viewBox="0 0 23 23" fill="none" xmlns="http://www.w3.org/2000/svg">
<rect width="23" height="23" rx="11.5" fill="#333333"/>
<path d="M7 8.5H8H16" stroke="white" stroke-linecap="round" stroke-linejoin="round"/>
<path d="M9.5 8.5V7.5C9.5 7.23478 9.60536 6.98043 9.79289 6.79289C9.98043 6.60536 10.2348 6.5 10.5 6.5H12.5C12.7652 6.5 13.0196 6.60536 13.2071 6.79289C13.3946 6.98043 13.5 7.23478 13.5 7.5V8.5M15 8.5V15.5C15 15.7652 14.8946 16.0196 14.7071 16.2071C14.5196 16.3946 14.2652 16.5 14 16.5H9C8.73478 16.5 8.48043 16.3946 8.29289 16.2071C8.10536 16.0196 8 15.7652 8 15.5V8.5H15Z" stroke="white" stroke-linecap="round" stroke-linejoin="round"/>
<path d="M12.5 11V14" stroke="white" stroke-linecap="round" stroke-linejoin="round"/>
<path d="M10.5 11V14" stroke="white" stroke-linecap="round" stroke-linejoin="round"/>
</svg>
