<svg width="22" height="24" viewBox="0 0 22 24" fill="none" xmlns="http://www.w3.org/2000/svg">
<path fill-rule="evenodd" clip-rule="evenodd" d="M8 3H14V1.25C14 1.184 13.974 1.12 13.927 1.073C13.88 1.026 13.816 1 13.75 1H8.25C8.184 1 8.12 1.026 8.073 1.073C8.026 1.12 8 1.184 8 1.25V3ZM19 4H3V22C3 22.552 3.448 23 4 23H18C18.552 23 19 22.552 19 22V4ZM9 7.5C9 7.224 8.776 7 8.5 7C8.224 7 8 7.224 8 7.5V19.5C8 19.776 8.224 20 8.5 20C8.776 20 9 19.776 9 19.5V7.5ZM14 7.5C14 7.224 13.776 7 13.5 7C13.224 7 13 7.224 13 7.5V19.5C13 19.776 13.224 20 13.5 20C13.776 20 14 19.776 14 19.5V7.5ZM22 3V4H20V22C20 23.105 19.105 24 18 24H4C2.895 24 2 23.105 2 22V4H0V3H7V1C7 0.448 7.448 0 8 0H14C14.552 0 15 0.448 15 1V3H22Z" fill="white"/>
</svg>
