<svg width="5" height="16" viewBox="0 0 5 16" fill="none" xmlns="http://www.w3.org/2000/svg">
<path fill-rule="evenodd" clip-rule="evenodd" d="M0.784851 2.16667C0.784851 3.08714 1.53104 3.83333 2.45152 3.83333C3.37199 3.83333 4.11818 3.08714 4.11818 2.16667C4.11818 1.24619 3.37199 0.5 2.45152 0.5C1.53104 0.5 0.784851 1.24619 0.784851 2.16667ZM2.45152 9.66667C1.53104 9.66667 0.784851 8.92047 0.784851 8C0.784851 7.07952 1.53104 6.33333 2.45152 6.33333C3.37199 6.33333 4.11818 7.07952 4.11818 8C4.11818 8.92047 3.37199 9.66667 2.45152 9.66667ZM2.45152 15.5C1.53104 15.5 0.784851 14.7538 0.784851 13.8333C0.784851 12.9129 1.53104 12.1667 2.45152 12.1667C3.37199 12.1667 4.11818 12.9129 4.11818 13.8333C4.11818 14.7538 3.37199 15.5 2.45152 15.5Z" fill="#C4C4C4"/>
</svg>
