<svg width="24" height="24" viewBox="0 0 24 24" fill="none" xmlns="http://www.w3.org/2000/svg">
<rect x="0.95166" y="0.5" width="23" height="23" rx="11.5" fill="#333333"/>
<path fill-rule="evenodd" clip-rule="evenodd" d="M14.6703 7C14.9977 7 15.3115 7.13071 15.5407 7.36171L17.0912 8.91216C17.322 9.143 17.4517 9.45608 17.4517 9.78254C17.4517 10.109 17.322 10.4221 17.0912 10.6529L11.4304 16.3119C11.0812 16.7147 10.5861 16.9623 10.019 17.0012H7.45166V16.5012L7.45328 14.3937C7.49588 13.8664 7.74099 13.3762 8.11491 13.0467L13.7994 7.36231C14.0299 7.13041 14.3433 7 14.6703 7ZM9.98365 16.0024C10.2508 15.9835 10.4994 15.8592 10.6991 15.6308L14.48 11.8499L12.6028 9.9726L8.79971 13.7748C8.59714 13.954 8.47181 14.2046 8.45166 14.4339V16.0015L9.98365 16.0024ZM13.31 9.26558L15.1871 11.1428L16.3841 9.94581C16.4274 9.90251 16.4517 9.84378 16.4517 9.78254C16.4517 9.7213 16.4274 9.66257 16.3841 9.61927L14.8322 8.06743C14.7894 8.02427 14.7311 8 14.6703 8C14.6095 8 14.5513 8.02427 14.5084 8.06743L13.31 9.26558Z" fill="white"/>
</svg>
