<svg width="26" height="25" viewBox="0 0 26 25" fill="none" xmlns="http://www.w3.org/2000/svg">
<path d="M12.7222 25C19.6258 25 25.2222 19.4036 25.2222 12.5C25.2222 5.59644 19.6258 0 12.7222 0C5.81867 0 0.222229 5.59644 0.222229 12.5C0.222229 19.4036 5.81867 25 12.7222 25Z" fill="#F0F3FA"/>
<path d="M19.5306 11.5084H12.7222V14.0001H16.6473C16.0736 15.6168 14.5361 16.6668 12.7222 16.6668C12.0469 16.668 11.3813 16.5051 10.7829 16.192C10.1845 15.8789 9.67111 15.425 9.28705 14.8695C8.903 14.3139 8.65975 13.6733 8.57826 13.0029C8.49677 12.3324 8.57948 11.6522 8.81926 11.0208C9.05904 10.3894 9.44871 9.8258 9.95471 9.37846C10.4607 8.93112 11.0679 8.61349 11.7239 8.45292C12.3799 8.29235 13.0651 8.29365 13.7205 8.45672C14.3759 8.61979 14.9819 8.93974 15.4861 9.389L17.45 7.42511C16.1689 6.2239 14.4785 5.55548 12.7222 5.55566C11.3488 5.55566 10.0061 5.96295 8.86412 6.72601C7.72211 7.48908 6.83203 8.57365 6.30642 9.84258C5.78081 11.1115 5.64329 12.5078 5.91124 13.8549C6.17919 15.202 6.84059 16.4394 7.81179 17.4106C8.78298 18.3818 10.0204 19.0432 11.3675 19.3111C12.7145 19.5791 14.1108 19.4415 15.3798 18.9159C16.6487 18.3903 17.7333 17.5002 18.4963 16.3582C19.2594 15.2162 19.6667 13.8736 19.6667 12.5001C19.6667 12.1251 19.6195 11.9487 19.5306 11.5084Z" fill="#FFC107"/>
<path d="M6.57776 9.26816L8.86109 10.9418C9.17127 10.1716 9.70463 9.51174 10.3926 9.04696C11.0807 8.58218 11.8919 8.3337 12.7222 8.33344C13.7847 8.33344 14.75 8.73344 15.4861 9.389L17.45 7.42511C16.1688 6.2239 14.4784 5.55548 12.7222 5.55566C11.4569 5.55559 10.2157 5.90141 9.13268 6.55575C8.04971 7.21009 7.16622 8.14803 6.57776 9.26816Z" fill="#FF3D00"/>
<path d="M12.7223 19.4443C14.4445 19.4441 16.1046 18.8012 17.3778 17.6415L15.2292 15.8221C14.5084 16.3702 13.6278 16.6669 12.7223 16.6665C10.9167 16.6665 9.38337 15.5138 8.80559 13.9082L6.54031 15.6526C7.12082 16.7933 8.0055 17.7512 9.09652 18.4204C10.1875 19.0895 11.4424 19.4439 12.7223 19.4443Z" fill="#4CAF50"/>
<path d="M19.5306 11.5083H12.7222V14H16.6472C16.3722 14.7777 15.8722 15.3347 15.2278 15.8236L17.3778 17.643C17.2264 17.7777 19.6667 15.9722 19.6667 12.5C19.6667 12.0347 19.6195 11.9486 19.5306 11.5083Z" fill="#1976D2"/>
</svg>
