<svg width="25" height="24" viewBox="0 0 25 24" fill="none" xmlns="http://www.w3.org/2000/svg">
<path d="M15.1406 22.1985V17.091C15.1398 16.9724 15.1156 16.8552 15.0694 16.746C15.0232 16.6368 14.9558 16.5378 14.8712 16.4547C14.7866 16.3717 14.6864 16.3061 14.5764 16.2619C14.4664 16.2177 14.3487 16.1956 14.2301 16.197H11.5511C11.3121 16.1958 11.0823 16.2891 10.9118 16.4565C10.7413 16.624 10.6438 16.852 10.6406 17.091V22.1985H4.64062C4.44378 22.1989 4.2488 22.1605 4.06683 22.0854C3.88486 22.0104 3.71947 21.9001 3.58015 21.7611C3.44082 21.6221 3.33028 21.4569 3.25486 21.2751C3.17944 21.0932 3.14062 20.8983 3.14063 20.7015V10.194C3.14063 9.6225 3.46762 9.1005 3.98062 8.85L12.9206 1.5L21.7646 8.8335C22.0258 8.95235 22.2472 9.14381 22.4025 9.38504C22.5578 9.62627 22.6405 9.90709 22.6406 10.194V20.7015C22.6406 20.8982 22.6019 21.093 22.5265 21.2747C22.4512 21.4564 22.3408 21.6215 22.2016 21.7606C22.0625 21.8996 21.8973 22.0098 21.7155 22.085C21.5337 22.1601 21.3388 22.1987 21.1421 22.1985H15.1406ZM12.8906 12.8985C13.1467 12.8985 13.4003 12.8481 13.6369 12.7501C13.8734 12.6521 14.0884 12.5084 14.2695 12.3274C14.4506 12.1463 14.5942 11.9313 14.6922 11.6947C14.7902 11.4581 14.8406 11.2046 14.8406 10.9485C14.8406 10.6924 14.7902 10.4389 14.6922 10.2023C14.5942 9.96568 14.4506 9.75072 14.2695 9.56964C14.0884 9.38857 13.8734 9.24493 13.6369 9.14693C13.4003 9.04894 13.1467 8.9985 12.8906 8.9985C12.3735 8.9985 11.8775 9.20395 11.5118 9.56964C11.1461 9.93534 10.9406 10.4313 10.9406 10.9485C10.9406 11.4657 11.1461 11.9617 11.5118 12.3274C11.8775 12.6931 12.3735 12.8985 12.8906 12.8985Z" fill="white"/>
<path d="M12.9691 1.5056C12.8877 1.49444 12.8049 1.5 12.7258 1.52192C12.6466 1.54384 12.5727 1.58167 12.5086 1.6331L1.79414 10.3091C1.73119 10.3587 1.67881 10.4204 1.6401 10.4905C1.60138 10.5607 1.57712 10.6379 1.56873 10.7176C1.56034 10.7973 1.568 10.8779 1.59125 10.9546C1.61451 11.0312 1.65289 11.1025 1.70414 11.1641L2.82914 12.5516C3.03614 12.8066 3.42164 12.8516 3.68114 12.6416L12.9691 5.1191L22.2586 12.6416C22.5181 12.8516 22.9036 12.8066 23.1136 12.5516L24.2356 11.1626C24.2869 11.101 24.3253 11.0297 24.3485 10.9531C24.3718 10.8764 24.3794 10.7958 24.371 10.7161C24.3627 10.6364 24.3384 10.5592 24.2997 10.489C24.261 10.4189 24.2086 10.3572 24.1456 10.3076L13.4311 1.6346C13.3669 1.58297 13.2928 1.54503 13.2133 1.52311C13.1339 1.50118 13.0508 1.49573 12.9691 1.5071V1.5056Z" fill="#C4C4C4"/>
</svg>
