<svg width="20" height="22" viewBox="0 0 20 22" fill="none" xmlns="http://www.w3.org/2000/svg">
<path d="M12.1406 21.1985V16.091C12.1398 15.9724 12.1156 15.8552 12.0694 15.746C12.0232 15.6368 11.9558 15.5378 11.8712 15.4547C11.7866 15.3717 11.6864 15.3061 11.5764 15.2619C11.4664 15.2177 11.3487 15.1956 11.2301 15.197H8.55112C8.31213 15.1958 8.08233 15.2891 7.91179 15.4565C7.74125 15.624 7.64379 15.852 7.64062 16.091V21.1985H1.64062C1.44378 21.1989 1.2488 21.1605 1.06683 21.0854C0.884856 21.0104 0.719473 20.9001 0.580146 20.7611C0.440819 20.6221 0.330282 20.4569 0.254864 20.2751C0.179445 20.0932 0.140625 19.8983 0.140625 19.7015V9.194C0.140625 8.6225 0.467625 8.1005 0.980625 7.85L9.92063 0.5L18.7646 7.8335C19.0258 7.95235 19.2472 8.14381 19.4025 8.38504C19.5578 8.62627 19.6405 8.90709 19.6406 9.194V19.7015C19.6406 19.8982 19.6019 20.093 19.5265 20.2747C19.4512 20.4564 19.3408 20.6215 19.2016 20.7606C19.0625 20.8996 18.8973 21.0098 18.7155 21.085C18.5337 21.1601 18.3388 21.1987 18.1421 21.1985H12.1406ZM9.89062 11.8985C10.1467 11.8985 10.4003 11.8481 10.6369 11.7501C10.8734 11.6521 11.0884 11.5084 11.2695 11.3274C11.4506 11.1463 11.5942 10.9313 11.6922 10.6947C11.7902 10.4581 11.8406 10.2046 11.8406 9.9485C11.8406 9.69242 11.7902 9.43885 11.6922 9.20227C11.5942 8.96568 11.4506 8.75072 11.2695 8.56964C11.0884 8.38857 10.8734 8.24493 10.6369 8.14693C10.4003 8.04894 10.1467 7.9985 9.89062 7.9985C9.37345 7.9985 8.87746 8.20395 8.51177 8.56964C8.14607 8.93534 7.94062 9.43133 7.94062 9.9485C7.94062 10.4657 8.14607 10.9617 8.51177 11.3274C8.87746 11.6931 9.37345 11.8985 9.89062 11.8985Z" fill="#FFA7DB"/>
</svg>
