<svg width="25" height="26" viewBox="0 0 25 26" fill="none" xmlns="http://www.w3.org/2000/svg">
<path fill-rule="evenodd" clip-rule="evenodd" d="M7.04652 2.24424C3.82527 2.24424 1.74402 4.45299 1.74402 7.86049V18.128C1.74402 19.0842 1.92152 19.938 2.22527 20.6767C2.2384 20.6611 2.5247 20.3122 2.89812 19.8571C3.62745 18.9683 4.68908 17.6746 4.69652 17.668C5.56152 16.6805 7.18527 15.208 9.31652 16.0992C9.78355 16.2929 10.1987 16.5581 10.5808 16.8023C10.618 16.8261 10.6549 16.8497 10.6915 16.873C11.4078 17.3517 11.829 17.5767 12.2665 17.5392C12.4478 17.5142 12.6178 17.4605 12.779 17.3605C13.3873 16.9855 14.9643 14.751 15.4366 14.0818C15.5058 13.9837 15.5513 13.9192 15.5665 13.8992C16.929 12.1242 19.029 11.6492 20.779 12.6992C21.014 12.8392 22.6978 14.0155 23.2553 14.488V7.86049C23.2553 4.45299 21.174 2.24424 17.9415 2.24424H7.04652ZM17.9415 0.500488C22.1628 0.500488 24.999 3.45299 24.999 7.86049V18.128C24.999 18.2388 24.9874 18.3428 24.9757 18.4467C24.9676 18.5197 24.9594 18.5927 24.9553 18.668C24.9526 18.7135 24.9513 18.7591 24.95 18.8046C24.9483 18.8653 24.9465 18.926 24.9415 18.9867C24.939 19.0105 24.9343 19.0333 24.9296 19.0561C24.925 19.0789 24.9203 19.1017 24.9178 19.1255C24.8765 19.518 24.8128 19.893 24.724 20.2567C24.7031 20.3476 24.6788 20.4352 24.6544 20.5236L24.649 20.543C24.549 20.8955 24.4315 21.2317 24.2903 21.553C24.2655 21.607 24.2394 21.6596 24.2133 21.7123C24.1959 21.7474 24.1785 21.7825 24.1615 21.818C24.009 22.1242 23.844 22.418 23.6528 22.6905C23.6174 22.7409 23.5797 22.7882 23.542 22.8356C23.5171 22.8668 23.4921 22.8982 23.4678 22.9305C23.269 23.188 23.0615 23.4342 22.8265 23.658C22.7796 23.7026 22.7289 23.7434 22.6782 23.7843C22.6465 23.8098 22.6148 23.8353 22.584 23.8617C22.3428 24.0692 22.0965 24.268 21.8253 24.438C21.7661 24.4752 21.7032 24.5064 21.6405 24.5375C21.6 24.5576 21.5596 24.5776 21.5203 24.5992C21.244 24.7517 20.9653 24.9005 20.6615 25.0155C20.5884 25.0433 20.5107 25.0633 20.4327 25.0835C20.3773 25.0978 20.3218 25.1121 20.2678 25.1292C20.2407 25.1376 20.2137 25.146 20.1867 25.1544C19.9154 25.2388 19.6449 25.323 19.3528 25.373C19.1835 25.4027 19.0039 25.414 18.8241 25.4254C18.7463 25.4304 18.6685 25.4353 18.5915 25.4417C18.5087 25.4479 18.4276 25.4579 18.3463 25.4679C18.2141 25.4842 18.0816 25.5005 17.9415 25.5005H7.04652C6.57652 25.5005 6.12777 25.453 5.69402 25.3817C5.68558 25.3804 5.67748 25.3791 5.66953 25.3778C5.66219 25.3766 5.65498 25.3754 5.64777 25.3742C3.95652 25.083 2.55277 24.2667 1.56902 23.0355C1.56219 23.0355 1.55951 23.0309 1.55593 23.0247C1.55362 23.0208 1.55094 23.0162 1.54652 23.0117C0.557773 21.7667 -0.000976562 20.093 -0.000976562 18.128V7.86049C-0.000976562 3.45299 2.83777 0.500488 7.04652 0.500488H17.9415ZM11.2498 8.64369C11.2498 10.3374 9.83262 11.75 8.13083 11.75C6.63495 11.75 5.35951 10.6571 5.07366 9.24203C5.02642 9.02971 4.99977 8.81137 4.99977 8.58578C4.99977 6.88003 6.38543 5.49999 8.09813 5.49999C8.97022 5.49999 9.75995 5.86671 10.3256 6.45178C10.8937 7.01635 11.2498 7.79443 11.2498 8.64369Z" fill="white"/>
</svg>
