<svg width="21" height="20" viewBox="0 0 21 20" fill="none" xmlns="http://www.w3.org/2000/svg">
<path fill-rule="evenodd" clip-rule="evenodd" d="M6.3058 1.66699H14.0808C16.9141 1.66699 18.5308 3.26699 18.5308 6.10866V13.892C18.5308 16.717 16.9225 18.3337 14.0891 18.3337H6.3058C3.46414 18.3337 1.86414 16.717 1.86414 13.892V6.10866C1.86414 3.26699 3.46414 1.66699 6.3058 1.66699ZM10.8808 10.692H13.2475C13.6308 10.6837 13.9391 10.3753 13.9391 9.99199C13.9391 9.60866 13.6308 9.30033 13.2475 9.30033H10.8808V6.95033C10.8808 6.56699 10.5725 6.25866 10.1891 6.25866C9.8058 6.25866 9.49747 6.56699 9.49747 6.95033V9.30033H7.13914C6.9558 9.30033 6.7808 9.37533 6.64747 9.50033C6.52247 9.63366 6.44747 9.80783 6.44747 9.99199C6.44747 10.3753 6.7558 10.6837 7.13914 10.692H9.49747V13.0503C9.49747 13.4337 9.8058 13.742 10.1891 13.742C10.5725 13.742 10.8808 13.4337 10.8808 13.0503V10.692Z" fill="#F80595"/>
</svg>
