<svg width="100" height="81" viewBox="0 0 100 81" fill="none" xmlns="http://www.w3.org/2000/svg">
<path opacity="0.4" d="M80.3188 57.2424C80.3188 65.3799 73.7855 71.9716 65.648 72.0008H65.6188H36.7146C28.6063 72.0008 21.9855 65.4383 21.9855 57.3008V57.2716C21.9855 57.2716 22.003 44.3624 22.0263 37.8699C22.0292 36.6508 23.4292 35.9683 24.383 36.7266C31.313 42.2245 43.7059 52.2491 43.8605 52.3804C45.9313 54.0399 48.5563 54.9762 51.2396 54.9762C53.923 54.9762 56.548 54.0399 58.6188 52.3483C58.7734 52.2462 70.8892 42.522 77.9242 36.9337C78.8809 36.1724 80.2867 36.8549 80.2896 38.0712C80.3188 44.5141 80.3188 57.2424 80.3188 57.2424Z" fill="#F80595"/>
<path d="M78.7908 27.2981C76.265 22.5381 71.295 19.4989 65.8233 19.4989H36.715C31.2433 19.4989 26.2733 22.5381 23.7475 27.2981C23.1816 28.3626 23.45 29.6897 24.392 30.4422L46.0483 47.7643C47.565 48.9893 49.4025 49.5989 51.24 49.5989C51.2516 49.5989 51.2604 49.5989 51.2691 49.5989C51.2779 49.5989 51.2895 49.5989 51.2983 49.5989C53.1358 49.5989 54.9733 48.9893 56.49 47.7643L78.1462 30.4422C79.0883 29.6897 79.3566 28.3626 78.7908 27.2981Z" fill="#F80595"/>
<path d="M96.8475 5.31897L83.8475 18.319L99.8475 8.81897L96.8475 5.31897Z" fill="#F80595"/>
<path d="M78.9267 2.45632L80.5467 15.6248L82.25 2.30455L78.9267 2.45632Z" fill="#F80595"/>
<path d="M3.15247 5.31897L16.1525 18.319L0.152466 8.81897L3.15247 5.31897Z" fill="#F80595"/>
<path d="M21.0733 2.45632L19.4533 15.6248L17.75 2.30455L21.0733 2.45632Z" fill="#F80595"/>
</svg>
