<svg width="48" height="48" viewBox="0 0 48 48" fill="none" xmlns="http://www.w3.org/2000/svg">
<path fill-rule="evenodd" clip-rule="evenodd" d="M41.892 4L43.8797 39.7781C44.0022 41.9839 42.3135 43.8713 40.1077 43.9938C39.9969 43.999 39.9969 43.999 39.8859 44H8.11426C5.90512 44 4.11426 42.2091 4.11426 40C4.11528 39.889 4.11528 39.889 4.12042 39.7781L6.10809 4H41.892ZM9.89204 8L8.11426 40H39.8859L38.1081 8H9.89204ZM18.0001 12H14.0001V17C14.0001 21.8014 18.6465 26 24.0001 26C29.3536 26 34.0001 21.8014 34.0001 17V12H30.0001V17C30.0001 19.4967 27.2298 22 24.0001 22C20.7703 22 18.0001 19.4967 18.0001 17V12Z" fill="#C4C4C4"/>
</svg>
