<svg width="24" height="24" viewBox="0 0 24 24" fill="none" xmlns="http://www.w3.org/2000/svg">
<path d="M20.4898 7.51999C20.4841 7.49362 20.4841 7.46635 20.4898 7.43999C20.485 7.41691 20.485 7.39307 20.4898 7.36999V7.27999L20.4298 7.12999C20.4054 7.08906 20.3751 7.05199 20.3398 7.01999L20.2498 6.93999H20.1998L16.2598 4.44999L12.5398 2.14999C12.4538 2.08172 12.3553 2.03078 12.2498 1.99999H12.1698C12.0804 1.98507 11.9892 1.98507 11.8998 1.99999H11.7998C11.6837 2.02568 11.5723 2.06956 11.4698 2.12999L3.99982 6.77999L3.90982 6.84999L3.81982 6.92999L3.71982 6.99999L3.66982 7.05999L3.60982 7.20999V7.29999V7.35999C3.60011 7.4263 3.60011 7.49368 3.60982 7.55999V16.29C3.60948 16.4599 3.65246 16.6272 3.7347 16.7759C3.81693 16.9246 3.93571 17.0499 4.07982 17.14L11.5798 21.78L11.7298 21.84H11.8098C11.979 21.8936 12.1606 21.8936 12.3298 21.84H12.4098L12.5598 21.78L19.9998 17.21C20.1439 17.1199 20.2627 16.9946 20.345 16.8459C20.4272 16.6972 20.4702 16.5299 20.4698 16.36V7.62999C20.4698 7.62999 20.4898 7.55999 20.4898 7.51999ZM11.9998 4.16999L13.7798 5.26999L8.18982 8.72999L6.39982 7.62999L11.9998 4.16999ZM10.9998 19.17L5.49982 15.81V9.41999L10.9998 12.82V19.17ZM11.9998 11.06L10.0898 9.90999L15.6798 6.43999L17.5998 7.62999L11.9998 11.06ZM18.4998 15.78L12.9998 19.2V12.82L18.4998 9.41999V15.78Z" fill="#169E00"/>
</svg>
