<svg width="25" height="24" viewBox="0 0 25 24" fill="none" xmlns="http://www.w3.org/2000/svg">
<path d="M17.5406 15.003C17.5408 14.5893 17.4595 14.1797 17.3014 13.7974C17.1433 13.4152 16.9114 13.0678 16.6191 12.7752C16.3267 12.4825 15.9796 12.2503 15.5975 12.0919C15.2154 11.9334 14.8058 11.8517 14.3921 11.8515C13.9785 11.8513 13.5688 11.9326 13.1866 12.0907C12.8043 12.2488 12.4569 12.4807 12.1643 12.7731C11.8717 13.0654 11.6395 13.4126 11.481 13.7947C11.3225 14.1768 11.2408 14.5863 11.2406 15H2.39062C1.56263 15 0.890625 14.3805 0.890625 13.6155V4.3845C0.890625 3.6195 1.56263 3 2.39062 3H20.3936C21.2231 3 21.8936 3.6195 21.8936 4.3845V15.0045L17.5406 15.003ZM11.3996 6C10.6028 5.99881 9.8381 6.31421 9.2738 6.87682C8.70951 7.43942 8.39182 8.20316 8.39062 9C8.38943 9.79684 8.70483 10.5615 9.26744 11.1258C9.83005 11.6901 10.5938 12.0078 11.3906 12.009C11.7852 12.0096 12.176 11.9325 12.5407 11.782C12.9055 11.6316 13.237 11.4108 13.5164 11.1322C13.7959 10.8536 14.0177 10.5227 14.1692 10.1584C14.3207 9.79413 14.399 9.40356 14.3996 9.009C14.4002 8.61444 14.3231 8.22363 14.1726 7.85889C14.0222 7.49414 13.8014 7.16259 13.5228 6.88318C13.2442 6.60377 12.9134 6.38196 12.5491 6.23043C12.1848 6.07889 11.7942 6.00059 11.3996 6Z" fill="#C4C4C4"/>
<path d="M23.3906 21H5.39062C4.56263 21 3.89062 20.3805 3.89062 19.6155V10.3845C3.89062 9.6195 4.56263 9 5.39062 9H23.3906C24.2186 9 24.8906 9.6195 24.8906 10.3845V19.6155C24.8906 20.3805 24.2186 21 23.3906 21ZM14.3996 12C14.0051 11.9994 13.6143 12.0765 13.2495 12.227C12.8848 12.3774 12.5532 12.5982 12.2738 12.8768C11.9944 13.1554 11.7726 13.4863 11.6211 13.8506C11.4695 14.2149 11.3912 14.6054 11.3906 15C11.39 15.3946 11.4672 15.7854 11.6176 16.1501C11.7681 16.5149 11.9889 16.8464 12.2674 17.1258C12.546 17.4052 12.8769 17.627 13.2412 17.7786C13.6055 17.9301 13.9961 18.0084 14.3906 18.009C15.1875 18.0102 15.9521 17.6948 16.5164 17.1322C17.0807 16.5696 17.3984 15.8058 17.3996 15.009C17.4008 14.2122 17.0854 13.4475 16.5228 12.8832C15.9602 12.3189 15.1965 12.0012 14.3996 12Z" fill="white"/>
</svg>
