<svg width="21" height="20" viewBox="0 0 21 20" fill="none" xmlns="http://www.w3.org/2000/svg">
<path d="M14.7015 7.8333L7.20152 3.5083" stroke="#F80595" stroke-width="2" stroke-linecap="round" stroke-linejoin="round"/>
<path d="M18.4515 13.3334V6.66675C18.4512 6.37448 18.3741 6.08742 18.2278 5.83438C18.0815 5.58134 17.8713 5.37122 17.6182 5.22508L11.7849 1.89175C11.5315 1.74547 11.2441 1.66846 10.9515 1.66846C10.659 1.66846 10.3716 1.74547 10.1182 1.89175L4.28486 5.22508C4.03174 5.37122 3.82151 5.58134 3.67524 5.83438C3.52898 6.08742 3.45182 6.37448 3.45152 6.66675V13.3334C3.45182 13.6257 3.52898 13.9127 3.67524 14.1658C3.82151 14.4188 4.03174 14.6289 4.28486 14.7751L10.1182 18.1084C10.3716 18.2547 10.659 18.3317 10.9515 18.3317C11.2441 18.3317 11.5315 18.2547 11.7849 18.1084L17.6182 14.7751C17.8713 14.6289 18.0815 14.4188 18.2278 14.1658C18.3741 13.9127 18.4512 13.6257 18.4515 13.3334Z" stroke="#F80595" stroke-width="2" stroke-linecap="round" stroke-linejoin="round"/>
<path d="M3.67653 5.80005L10.9515 10.0084L18.2265 5.80005" stroke="#F80595" stroke-width="2" stroke-linecap="round" stroke-linejoin="round"/>
<path d="M10.9515 18.4V10" stroke="#F80595" stroke-width="2" stroke-linecap="round" stroke-linejoin="round"/>
</svg>
