<svg width="17" height="17" viewBox="0 0 17 17" fill="none" xmlns="http://www.w3.org/2000/svg">
<path fill-rule="evenodd" clip-rule="evenodd" d="M8.49015 16.052L8.92809 15.6692C12.6108 12.4495 14.4827 9.63817 14.4827 7.16699C14.4827 3.66743 11.7547 1.16699 8.49015 1.16699C5.22555 1.16699 2.49756 3.66743 2.49756 7.16699C2.49756 9.63817 4.36945 12.4495 8.0522 15.6692L8.49015 16.052ZM8.49015 14.2759C5.36509 11.456 3.82924 9.06648 3.82924 7.16699C3.82924 4.43139 5.93605 2.50033 8.49015 2.50033C11.0442 2.50033 13.151 4.43139 13.151 7.16699C13.151 9.06648 11.6152 11.456 8.49015 14.2759ZM8.49015 3.83366C10.3288 3.83366 11.8194 5.32604 11.8194 7.16699C11.8194 9.00794 10.3288 10.5003 8.49015 10.5003C6.65147 10.5003 5.16093 9.00794 5.16093 7.16699C5.16093 5.32604 6.65147 3.83366 8.49015 3.83366ZM6.49262 7.16699C6.49262 6.06242 7.38694 5.16699 8.49015 5.16699C9.59335 5.16699 10.4877 6.06242 10.4877 7.16699C10.4877 8.27156 9.59335 9.16699 8.49015 9.16699C7.38694 9.16699 6.49262 8.27156 6.49262 7.16699Z" fill="#F80595"/>
</svg>
