<svg width="50" height="51" viewBox="0 0 50 51" fill="none" xmlns="http://www.w3.org/2000/svg">
<circle cx="25" cy="25.5" r="25" fill="#9098B1"/>
<mask id="mask0_177_4216" style="mask-type:alpha" maskUnits="userSpaceOnUse" x="0" y="0" width="50" height="51">
<circle cx="25" cy="25.5" r="25" fill="#C4C4C4"/>
</mask>
<g mask="url(#mask0_177_4216)">
<path d="M25 30.5C17.809 30.5 11.6667 33.6551 11.6667 46.2753C11.6667 58.9002 17.7706 62.1667 25 62.1667C32.191 62.1667 38.3333 59.0162 38.3333 46.3913C38.3333 33.7664 32.231 30.5 25 30.5Z" fill="#C9CDD4"/>
</g>
<path opacity="0.4" d="M25 27.1667C29.6265 27.1667 33.3333 23.4582 33.3333 18.8333C33.3333 14.2084 29.6265 10.5 25 10.5C20.3751 10.5 16.6667 14.2084 16.6667 18.8333C16.6667 23.4582 20.3751 27.1667 25 27.1667Z" fill="#C9CDD4"/>
</svg>
