<svg width="20" height="20" viewBox="0 0 20 20" fill="none" xmlns="http://www.w3.org/2000/svg">
<path d="M17.5 13.3334H5.83335C5.61234 13.3334 5.40038 13.2456 5.2441 13.0893C5.08782 12.9331 5.00002 12.7211 5.00002 12.5001C5.00002 12.2791 5.08782 12.0671 5.2441 11.9108C5.40038 11.7545 5.61234 11.6667 5.83335 11.6667H14.5334C15.0906 11.6668 15.6318 11.4807 16.0712 11.1379C16.5105 10.7952 16.8228 10.3155 16.9584 9.77508L18.3334 4.36675C18.3646 4.24375 18.3673 4.11526 18.3413 3.99106C18.3153 3.86686 18.2613 3.75023 18.1834 3.65008C18.1023 3.54736 17.9982 3.46516 17.8795 3.41015C17.7608 3.35513 17.6308 3.32885 17.5 3.33341H5.63335C5.46143 2.84712 5.1433 2.42591 4.72257 2.12753C4.30185 1.82915 3.79914 1.6682 3.28335 1.66675H2.50002C2.27901 1.66675 2.06704 1.75455 1.91076 1.91083C1.75448 2.06711 1.66669 2.27907 1.66669 2.50008C1.66669 2.7211 1.75448 2.93306 1.91076 3.08934C2.06704 3.24562 2.27901 3.33341 2.50002 3.33341H3.28335C3.47372 3.32787 3.66023 3.38769 3.81186 3.50293C3.96348 3.61816 4.07106 3.78185 4.11669 3.96675L4.16669 4.36675L5.60835 10.0001C4.94531 10.0299 4.32128 10.3219 3.87354 10.8119C3.42579 11.3018 3.19102 11.9495 3.22085 12.6126C3.25069 13.2756 3.5427 13.8997 4.03264 14.3474C4.52258 14.7951 5.17031 15.0299 5.83335 15.0001H5.98335C5.8463 15.3777 5.80226 15.7828 5.85496 16.181C5.90767 16.5792 6.05556 16.9589 6.28612 17.2879C6.51668 17.6168 6.82312 17.8854 7.17948 18.0708C7.53585 18.2562 7.93164 18.353 8.33335 18.353C8.73507 18.353 9.13086 18.2562 9.48723 18.0708C9.84359 17.8854 10.15 17.6168 10.3806 17.2879C10.6111 16.9589 10.759 16.5792 10.8117 16.181C10.8644 15.7828 10.8204 15.3777 10.6834 15.0001H12.65C12.513 15.3777 12.4689 15.7828 12.5216 16.181C12.5743 16.5792 12.7222 16.9589 12.9528 17.2879C13.1833 17.6168 13.4898 17.8854 13.8461 18.0708C14.2025 18.2562 14.5983 18.353 15 18.353C15.4017 18.353 15.7975 18.2562 16.1539 18.0708C16.5103 17.8854 16.8167 17.6168 17.0473 17.2879C17.2778 16.9589 17.4257 16.5792 17.4784 16.181C17.5311 15.7828 17.4871 15.3777 17.35 15.0001H17.5C17.721 15.0001 17.933 14.9123 18.0893 14.756C18.2456 14.5997 18.3334 14.3878 18.3334 14.1667C18.3334 13.9457 18.2456 13.7338 18.0893 13.5775C17.933 13.4212 17.721 13.3334 17.5 13.3334ZM16.4334 5.00008L15.3417 9.36675C15.2961 9.55165 15.1885 9.71534 15.0369 9.83057C14.8852 9.9458 14.6987 10.0056 14.5084 10.0001H7.31669L6.06669 5.00008H16.4334ZM8.33335 16.6667C8.16854 16.6667 8.00742 16.6179 7.87038 16.5263C7.73334 16.4347 7.62653 16.3046 7.56345 16.1523C7.50038 16 7.48388 15.8325 7.51603 15.6708C7.54819 15.5092 7.62755 15.3607 7.7441 15.2442C7.86064 15.1276 8.00913 15.0482 8.17078 15.0161C8.33243 14.9839 8.49999 15.0004 8.65226 15.0635C8.80453 15.1266 8.93468 15.2334 9.02625 15.3704C9.11781 15.5075 9.16669 15.6686 9.16669 15.8334C9.16669 16.0544 9.07889 16.2664 8.92261 16.4227C8.76633 16.579 8.55437 16.6667 8.33335 16.6667ZM15 16.6667C14.8352 16.6667 14.6741 16.6179 14.537 16.5263C14.4 16.4347 14.2932 16.3046 14.2301 16.1523C14.167 16 14.1505 15.8325 14.1827 15.6708C14.2149 15.5092 14.2942 15.3607 14.4108 15.2442C14.5273 15.1276 14.6758 15.0482 14.8374 15.0161C14.9991 14.9839 15.1667 15.0004 15.3189 15.0635C15.4712 15.1266 15.6013 15.2334 15.6929 15.3704C15.7845 15.5075 15.8334 15.6686 15.8334 15.8334C15.8334 16.0544 15.7456 16.2664 15.5893 16.4227C15.433 16.579 15.221 16.6667 15 16.6667Z" fill="#F80595"/>
</svg>
