<svg width="21" height="20" viewBox="0 0 21 20" fill="none" xmlns="http://www.w3.org/2000/svg">
<path d="M18.8333 1.66675H2.16668C1.94566 1.66675 1.7337 1.75455 1.57742 1.91083C1.42114 2.06711 1.33334 2.27907 1.33334 2.50008V5.83342C1.33479 6.3492 1.49574 6.85192 1.79413 7.27264C2.09251 7.69336 2.51372 8.01149 3.00001 8.18341V17.5001C3.00001 17.7211 3.08781 17.9331 3.24409 18.0893C3.40037 18.2456 3.61233 18.3334 3.83334 18.3334H17.1667C17.3877 18.3334 17.5997 18.2456 17.7559 18.0893C17.9122 17.9331 18 17.7211 18 17.5001V8.18341C18.4863 8.01149 18.9075 7.69336 19.2059 7.27264C19.5043 6.85192 19.6652 6.3492 19.6667 5.83342V2.50008C19.6667 2.27907 19.5789 2.06711 19.4226 1.91083C19.2663 1.75455 19.0544 1.66675 18.8333 1.66675ZM13 3.33341H14.6667V5.83342C14.6667 6.05443 14.5789 6.26639 14.4226 6.42267C14.2663 6.57895 14.0544 6.66675 13.8333 6.66675C13.6123 6.66675 13.4004 6.57895 13.2441 6.42267C13.0878 6.26639 13 6.05443 13 5.83342V3.33341ZM9.66668 3.33341H11.3333V5.83342C11.3333 6.05443 11.2455 6.26639 11.0893 6.42267C10.933 6.57895 10.721 6.66675 10.5 6.66675C10.279 6.66675 10.067 6.57895 9.91075 6.42267C9.75447 6.26639 9.66668 6.05443 9.66668 5.83342V3.33341ZM6.33334 3.33341H8.00001V5.83342C8.00001 6.05443 7.91221 6.26639 7.75593 6.42267C7.59965 6.57895 7.38769 6.66675 7.16668 6.66675C6.94566 6.66675 6.7337 6.57895 6.57742 6.42267C6.42114 6.26639 6.33334 6.05443 6.33334 5.83342V3.33341ZM3.83334 6.66675C3.61233 6.66675 3.40037 6.57895 3.24409 6.42267C3.08781 6.26639 3.00001 6.05443 3.00001 5.83342V3.33341H4.66668V5.83342C4.66668 6.05443 4.57888 6.26639 4.4226 6.42267C4.26632 6.57895 4.05436 6.66675 3.83334 6.66675ZM12.1667 16.6667H8.83334V13.3334C8.83334 12.8914 9.00894 12.4675 9.3215 12.1549C9.63406 11.8423 10.058 11.6667 10.5 11.6667C10.942 11.6667 11.366 11.8423 11.6785 12.1549C11.9911 12.4675 12.1667 12.8914 12.1667 13.3334V16.6667ZM16.3333 16.6667H13.8333V13.3334C13.8333 12.4494 13.4822 11.6015 12.857 10.9764C12.2319 10.3513 11.3841 10.0001 10.5 10.0001C9.61595 10.0001 8.76811 10.3513 8.14299 10.9764C7.51787 11.6015 7.16668 12.4494 7.16668 13.3334V16.6667H4.66668V8.18341C4.97298 8.06972 5.25554 7.90018 5.50001 7.68342C5.95836 8.09338 6.55173 8.32003 7.16668 8.32003C7.78162 8.32003 8.37499 8.09338 8.83334 7.68342C9.29169 8.09338 9.88507 8.32003 10.5 8.32003C11.115 8.32003 11.7083 8.09338 12.1667 7.68342C12.625 8.09338 13.2184 8.32003 13.8333 8.32003C14.4483 8.32003 15.0417 8.09338 15.5 7.68342C15.7445 7.90018 16.027 8.06972 16.3333 8.18341V16.6667ZM18 5.83342C18 6.05443 17.9122 6.26639 17.7559 6.42267C17.5997 6.57895 17.3877 6.66675 17.1667 6.66675C16.9457 6.66675 16.7337 6.57895 16.5774 6.42267C16.4211 6.26639 16.3333 6.05443 16.3333 5.83342V3.33341H18V5.83342Z" fill="#9B9B9B"/>
</svg>
