<svg width="21" height="20" viewBox="0 0 21 20" fill="none" xmlns="http://www.w3.org/2000/svg">
<g clip-path="url(#clip0_21_5239)">
<path d="M20.1182 10.4166V14.5833C20.1182 14.8043 20.0304 15.0162 19.8741 15.1725C19.7178 15.3288 19.5059 15.4166 19.2849 15.4166H18.4515C18.4515 16.0796 18.1881 16.7155 17.7193 17.1844C17.2505 17.6532 16.6146 17.9166 15.9515 17.9166C15.2885 17.9166 14.6526 17.6532 14.1838 17.1844C13.7149 16.7155 13.4515 16.0796 13.4515 15.4166H8.45153C8.45153 16.0796 8.18814 16.7155 7.7193 17.1844C7.25046 17.6532 6.61457 17.9166 5.95153 17.9166C5.28849 17.9166 4.6526 17.6532 4.18376 17.1844C3.71492 16.7155 3.45153 16.0796 3.45153 15.4166H2.6182C2.39718 15.4166 2.18522 15.3288 2.02894 15.1725C1.87266 15.0162 1.78486 14.8043 1.78486 14.5833V4.58325C1.78486 3.92021 2.04825 3.28433 2.5171 2.81549C2.98594 2.34664 3.62182 2.08325 4.28486 2.08325H11.7849C12.4479 2.08325 13.0838 2.34664 13.5526 2.81549C14.0215 3.28433 14.2849 3.92021 14.2849 4.58325V6.24992H15.9515C16.3396 6.24992 16.7224 6.34028 17.0696 6.51385C17.4167 6.68742 17.7187 6.93943 17.9515 7.24992L19.9515 9.91658C19.9759 9.95281 19.9955 9.99202 20.0099 10.0333L20.0599 10.1249C20.0966 10.2179 20.1164 10.3167 20.1182 10.4166ZM6.78486 15.4166C6.78486 15.2518 6.73599 15.0907 6.64442 14.9536C6.55285 14.8166 6.4227 14.7098 6.27043 14.6467C6.11816 14.5836 5.9506 14.5671 5.78895 14.5993C5.6273 14.6314 5.47882 14.7108 5.36227 14.8273C5.24573 14.9439 5.16636 15.0924 5.13421 15.254C5.10205 15.4157 5.11856 15.5832 5.18163 15.7355C5.2447 15.8878 5.35151 16.0179 5.48855 16.1095C5.6256 16.201 5.78671 16.2499 5.95153 16.2499C6.17254 16.2499 6.38451 16.1621 6.54079 16.0058C6.69707 15.8496 6.78486 15.6376 6.78486 15.4166ZM12.6182 4.58325C12.6182 4.36224 12.5304 4.15028 12.3741 3.994C12.2178 3.83772 12.0059 3.74992 11.7849 3.74992H4.28486C4.06385 3.74992 3.85189 3.83772 3.69561 3.994C3.53933 4.15028 3.45153 4.36224 3.45153 4.58325V13.7499H4.10153C4.33585 13.4921 4.62146 13.2861 4.94004 13.1452C5.25863 13.0042 5.60316 12.9314 5.95153 12.9314C6.2999 12.9314 6.64443 13.0042 6.96302 13.1452C7.2816 13.2861 7.56721 13.4921 7.80153 13.7499H12.6182V4.58325ZM14.2849 9.58325H17.6182L16.6182 8.24992C16.5406 8.14642 16.4399 8.06242 16.3242 8.00456C16.2085 7.94671 16.0809 7.91658 15.9515 7.91658H14.2849V9.58325ZM16.7849 15.4166C16.7849 15.2518 16.736 15.0907 16.6444 14.9536C16.5529 14.8166 16.4227 14.7098 16.2704 14.6467C16.1182 14.5836 15.9506 14.5671 15.789 14.5993C15.6273 14.6314 15.4788 14.7108 15.3623 14.8273C15.2457 14.9439 15.1664 15.0924 15.1342 15.254C15.1021 15.4157 15.1186 15.5832 15.1816 15.7355C15.2447 15.8878 15.3515 16.0179 15.4886 16.1095C15.6256 16.201 15.7867 16.2499 15.9515 16.2499C16.1725 16.2499 16.3845 16.1621 16.5408 16.0058C16.6971 15.8496 16.7849 15.6376 16.7849 15.4166ZM18.4515 11.2499H14.2849V13.5666C14.7767 13.127 15.4222 12.8997 16.081 12.934C16.7397 12.9684 17.3581 13.2616 17.8015 13.7499H18.4515V11.2499Z" fill="#F80595"/>
</g>
<defs>
<clipPath id="clip0_21_5239">
<rect width="20" height="20" fill="white" transform="matrix(-1 0 0 1 20.9515 0)"/>
</clipPath>
</defs>
</svg>
