<svg width="21" height="20" viewBox="0 0 21 20" fill="none" xmlns="http://www.w3.org/2000/svg">
<g clip-path="url(#clip0_21_5235)">
<path d="M11.2015 10.1834C11.6462 9.79853 12.0028 9.32248 12.2472 8.7876C12.4917 8.25272 12.6182 7.67151 12.6182 7.08341C12.6182 5.97835 12.1792 4.91854 11.3978 4.13714C10.6164 3.35574 9.55659 2.91675 8.45152 2.91675C7.34645 2.91675 6.28664 3.35574 5.50524 4.13714C4.72384 4.91854 4.28485 5.97835 4.28485 7.08341C4.28484 7.67151 4.41135 8.25272 4.65579 8.7876C4.90023 9.32248 5.25687 9.79853 5.70152 10.1834C4.53497 10.7117 3.54524 11.5647 2.85067 12.6405C2.1561 13.7164 1.78608 14.9695 1.78485 16.2501C1.78485 16.4711 1.87265 16.6831 2.02893 16.8393C2.18521 16.9956 2.39717 17.0834 2.61818 17.0834C2.8392 17.0834 3.05116 16.9956 3.20744 16.8393C3.36372 16.6831 3.45152 16.4711 3.45152 16.2501C3.45152 14.924 3.9783 13.6522 4.91598 12.7145C5.85367 11.7769 7.12544 11.2501 8.45152 11.2501C9.7776 11.2501 11.0494 11.7769 11.9871 12.7145C12.9247 13.6522 13.4515 14.924 13.4515 16.2501C13.4515 16.4711 13.5393 16.6831 13.6956 16.8393C13.8519 16.9956 14.0638 17.0834 14.2849 17.0834C14.5059 17.0834 14.7178 16.9956 14.8741 16.8393C15.0304 16.6831 15.1182 16.4711 15.1182 16.2501C15.117 14.9695 14.7469 13.7164 14.0524 12.6405C13.3578 11.5647 12.3681 10.7117 11.2015 10.1834ZM8.45152 9.58341C7.95706 9.58341 7.47371 9.43679 7.06259 9.16209C6.65147 8.88738 6.33104 8.49694 6.14182 8.04012C5.9526 7.58331 5.90309 7.08064 5.99955 6.59569C6.09602 6.11074 6.33412 5.66528 6.68375 5.31565C7.03338 4.96602 7.47884 4.72791 7.96379 4.63145C8.44874 4.53499 8.95141 4.5845 9.40823 4.77372C9.86504 4.96294 10.2555 5.28337 10.5302 5.69449C10.8049 6.10561 10.9515 6.58896 10.9515 7.08341C10.9515 7.74646 10.6881 8.38234 10.2193 8.85118C9.75044 9.32002 9.11456 9.58341 8.45152 9.58341ZM16.5682 9.85008C17.1015 9.24952 17.4499 8.50763 17.5714 7.7137C17.6928 6.91977 17.5823 6.10764 17.253 5.37508C16.9237 4.64252 16.3897 4.02074 15.7152 3.5846C15.0408 3.14846 14.2547 2.91653 13.4515 2.91675C13.2305 2.91675 13.0185 3.00455 12.8623 3.16083C12.706 3.31711 12.6182 3.52907 12.6182 3.75008C12.6182 3.9711 12.706 4.18306 12.8623 4.33934C13.0185 4.49562 13.2305 4.58341 13.4515 4.58341C14.1146 4.58341 14.7504 4.84681 15.2193 5.31565C15.6881 5.78449 15.9515 6.42037 15.9515 7.08341C15.9503 7.52111 15.8343 7.95083 15.6149 8.3296C15.3955 8.70836 15.0806 9.0229 14.7015 9.24175C14.578 9.31301 14.4748 9.4148 14.4018 9.53736C14.3289 9.65993 14.2886 9.79916 14.2849 9.94175C14.2814 10.0832 14.314 10.2232 14.3796 10.3486C14.4452 10.474 14.5416 10.5806 14.6599 10.6584L14.9849 10.8751L15.0932 10.9334C16.0977 11.4098 16.9451 12.1634 17.5357 13.1053C18.1262 14.0473 18.4353 15.1384 18.4265 16.2501C18.4265 16.4711 18.5143 16.6831 18.6706 16.8393C18.8269 16.9956 19.0388 17.0834 19.2598 17.0834C19.4809 17.0834 19.6928 16.9956 19.8491 16.8393C20.0054 16.6831 20.0932 16.4711 20.0932 16.2501C20.1 14.9713 19.7797 13.712 19.1627 12.5918C18.5458 11.4716 17.6526 10.5278 16.5682 9.85008Z" fill="#F80595"/>
</g>
<defs>
<clipPath id="clip0_21_5235">
<rect width="20" height="20" fill="white" transform="translate(0.951523)"/>
</clipPath>
</defs>
</svg>
