<svg width="25" height="24" viewBox="0 0 25 24" fill="none" xmlns="http://www.w3.org/2000/svg">
<path fill-rule="evenodd" clip-rule="evenodd" d="M15.103 7.76241C15.103 10.4062 12.9396 12.5248 10.24 12.5248C7.54132 12.5248 5.37693 10.4062 5.37693 7.76241C5.37693 5.11865 7.54132 3 10.24 3C12.9396 3 15.103 5.11865 15.103 7.76241ZM2.89062 17.9174C2.89062 15.47 6.27615 14.8577 10.24 14.8577C14.2253 14.8577 17.5893 15.4911 17.5893 17.9404C17.5893 20.3877 14.2038 21 10.24 21C6.25463 21 2.89062 20.3666 2.89062 17.9174ZM17.064 7.84875C17.064 9.19506 16.6511 10.4513 15.9271 11.4948C15.8517 11.6021 15.9183 11.7468 16.0494 11.7698C16.2314 11.7995 16.4183 11.8177 16.6091 11.8216C18.5073 11.8704 20.2108 10.6736 20.6815 8.87118C21.3791 6.19676 19.3322 3.79543 16.7245 3.79543C16.4417 3.79543 16.1707 3.82418 15.9065 3.87688C15.8703 3.88454 15.8312 3.90179 15.8116 3.93246C15.7862 3.97174 15.8047 4.02253 15.8302 4.05607C16.6139 5.13216 17.064 6.44206 17.064 7.84875ZM20.2079 13.7023C21.4838 13.9466 22.3224 14.444 22.6697 15.1694C22.9643 15.7635 22.9643 16.4534 22.6697 17.0475C22.1384 18.1705 20.4241 18.5318 19.7578 18.6247C19.6198 18.6439 19.5093 18.5289 19.5239 18.3928C19.8644 15.2805 17.157 13.8048 16.4564 13.4656C16.4271 13.4493 16.4202 13.4263 16.4231 13.411C16.4251 13.4014 16.4378 13.3861 16.4603 13.3832C17.976 13.3545 19.6061 13.5586 20.2079 13.7023Z" fill="#C4C4C4"/>
</svg>
