<svg width="21" height="13" viewBox="0 0 21 13" fill="none" xmlns="http://www.w3.org/2000/svg">
<path d="M5.6524 12.3997C5.40926 12.3812 4.95113 12.36 4.49811 12.3099C4.02462 12.2544 3.67142 11.9691 3.38988 11.5941C3.28239 11.4514 3.20049 11.2824 3.13138 11.1133C2.52224 9.63155 1.92078 8.14449 1.3142 6.66006C1.03522 5.9786 0.756247 5.29978 0.479831 4.61568C0.269959 4.09534 0.472152 3.82592 1.01475 3.90252C2.01036 4.04779 3.00341 4.03987 3.99646 3.87875C5.04582 3.7097 6.05935 3.39803 7.04217 2.99126C8.15807 2.53167 9.26118 2.03775 10.3771 1.57287C11.1705 1.24271 11.9716 0.928391 12.8111 0.732933C13.5072 0.569171 14.2085 0.429181 14.92 0.402768C15.4063 0.384278 15.8977 0.452953 16.3866 0.484649C16.5043 0.492573 16.6246 0.497855 16.7423 0.513703C17.1774 0.569171 17.4871 0.830662 17.7533 1.16611C18.04 1.52797 18.1654 1.96907 18.3343 2.39168C18.5544 2.94108 18.7899 3.48255 19.0125 4.0293C19.5833 5.41864 20.1489 6.81062 20.7171 8.19995C20.7504 8.27919 20.7785 8.36636 20.7913 8.45088C20.8323 8.7203 20.6941 8.8999 20.4305 8.91575C20.2948 8.92368 20.1592 8.90519 20.0235 8.8867C18.406 8.66747 16.8345 8.89462 15.2912 9.39912C14.1266 9.78211 13.0133 10.2972 11.8871 10.7805C11.191 11.079 10.4897 11.3695 9.77818 11.6258C9.15112 11.8503 8.51383 12.0457 7.86886 12.2016C7.21621 12.3653 6.53796 12.3944 5.6524 12.3997ZM7.44399 6.53064C7.5003 7.6849 8.08129 8.69916 9.23302 9.31988C10.3054 9.90097 11.3778 9.87191 12.3888 9.14291C13.5584 8.30032 14.0422 6.76572 13.5789 5.416C13.0901 3.9844 11.7361 3.02824 10.3182 3.11277C8.75441 3.20521 7.44399 4.67643 7.44399 6.53064Z" fill="#3CD070"/>
</svg>
